# xmcd
#
# Track frame offsets: 
#        150
#        14894
#        35777
#        61953
#        78635
#        95450
#        111009
#        136045
#        152760
#
# Disc length: 2273 seconds
#
# Revision: 0
# Processed by: cddbd v1.5.2PL0 Copyright (c) Steve Scherf et al.
# Submitted via: ExactAudioCopy v1.3
#
DISCID=7408df09
DTITLE=Matt Joiner Band - Back When
DYEAR=2012
DGENRE=Blues Rock
TTITLE0=My Way Home
TTITLE1=Gotta Move On
TTITLE2=Back When
TTITLE3=Comin Around
TTITLE4=Fool No More
TTITLE5=Long Gone
TTITLE6=Close To You
TTITLE7=Workin It Out
TTITLE8=Deafening Silence
EXTD=
EXTT0=
EXTT1=
EXTT2=
EXTT3=
EXTT4=
EXTT5=
EXTT6=
EXTT7=
EXTT8=
PLAYORDER=
